<?xml version="1.0" standalone="no"?>
<!DOCTYPE svg PUBLIC "-//W3C//DTD SVG 20010904//EN"
 "http://www.w3.org/TR/2001/REC-SVG-20010904/DTD/svg10.dtd">
<svg version="1.0" xmlns="http://www.w3.org/2000/svg"
 width="500.000000pt" height="500.000000pt" viewBox="0 0 500.000000 500.000000"
 preserveAspectRatio="xMidYMid meet">

<g transform="translate(0.000000,500.000000) scale(0.100000,-0.100000)"
fill="#000000" stroke="none">
<path d="M0 2500 l0 -2500 2500 0 2500 0 0 2500 0 2500 -2500 0 -2500 0 0
-2500z m1968 1767 c-5 -21 -1142 -1686 -1152 -1687 -4 0 -5 7 -2 16 11 28
1141 1684 1149 1684 5 0 7 -6 5 -13z m403 -517 l124 -270 310 0 310 0 163
-288 c89 -158 176 -311 192 -339 l30 -53 -645 0 -645 0 0 88 c0 48 4 94 9 101
6 9 7 -22 4 -82 l-6 -97 287 0 c165 0 286 4 284 9 -15 41 -544 1171 -548 1171
-3 0 -167 -266 -364 -591 -309 -507 -394 -641 -375 -592 9 22 734 1212 740
1213 3 0 61 -121 130 -270z m-158 -275 c-3 -9 -8 -14 -10 -11 -3 3 -2 9 2 15
9 16 15 13 8 -4z m27 -55 c1 8 2 19 1 23 -1 5 3 6 9 2 5 -3 8 -16 6 -28 -2
-17 -11 -23 -35 -25 -40 -4 -61 12 -53 40 5 21 6 21 13 2 4 -10 8 -14 8 -7 1
7 8 10 16 7 11 -4 15 1 16 17 1 17 4 14 9 -11 4 -19 8 -28 10 -20z m57 -52
c-3 -8 -6 -5 -6 6 -1 11 2 17 5 13 3 -3 4 -12 1 -19z m-14 -25 c12 5 16 -69 5
-88 -3 -6 -9 -25 -13 -44 -5 -24 -10 -30 -16 -20 -5 8 -3 16 4 21 9 5 9 15 -1
40 -8 22 -9 35 -1 43 7 7 8 4 3 -10 -5 -16 -4 -18 6 -8 8 7 10 22 6 39 -6 23
-9 25 -18 13 -8 -11 -9 -10 -4 4 3 10 7 24 7 30 1 7 3 4 6 -6 3 -10 10 -16 16
-14z m-76 -30 c-3 -10 -5 -2 -5 17 0 19 2 27 5 18 2 -10 2 -26 0 -35z m113 17
c0 -5 -5 -10 -11 -10 -5 0 -7 5 -4 10 3 6 8 10 11 10 2 0 4 -4 4 -10z m-103
-107 c-3 -10 -5 -2 -5 17 0 19 2 27 5 18 2 -10 2 -26 0 -35z m-57 -12 c0 -17
-18 -21 -24 -6 -3 9 0 15 9 15 8 0 15 -4 15 -9z m26 -59 c3 -22 2 -48 -3 -56
-7 -13 -12 -12 -33 5 -14 12 -20 18 -13 15 8 -4 11 4 11 24 -1 17 3 34 7 38 4
4 5 -3 2 -15 -3 -13 -1 -26 4 -29 5 -3 9 12 9 32 0 47 8 40 16 -14z m-53 -3
c-8 -29 -13 -23 -13 14 0 22 3 28 9 18 5 -7 6 -22 4 -32z m94 -6 c-3 -10 -5
-2 -5 17 0 19 2 27 5 18 2 -10 2 -26 0 -35z m51 13 c-2 -1 -11 -7 -20 -14 -14
-11 -16 -10 -11 7 3 12 11 17 19 14 8 -3 14 -6 12 -7z m-41 -113 c-2 -16 -4
-3 -4 27 0 30 2 43 4 28 2 -16 2 -40 0 -55z m-37 7 c0 -11 -2 -20 -4 -20 -2 0
-6 9 -9 20 -3 11 -1 20 4 20 5 0 9 -9 9 -20z m10 -46 c0 -8 -4 -12 -10 -9 -5
3 -10 10 -10 16 0 5 5 9 10 9 6 0 10 -7 10 -16z m400 -403 c0 -11 -11 -70 -24
-133 -45 -210 -43 -343 5 -355 23 -6 26 -26 3 -21 -9 2 -26 16 -38 31 -18 25
-21 41 -20 132 l1 103 -36 5 c-20 3 -44 8 -53 12 -13 5 -30 -17 -83 -107 -93
-157 -115 -188 -136 -188 -10 0 -20 9 -24 19 -9 29 5 71 23 71 12 0 13 -3 4
-12 -13 -13 -16 -58 -4 -58 5 0 17 12 28 28 31 41 144 239 144 251 0 14 -40
23 -76 19 -20 -2 -29 -8 -28 -20 1 -10 -2 -15 -7 -12 -12 7 -11 31 2 40 13 8
82 8 109 -1 16 -5 28 7 66 66 81 124 144 181 144 130z m1070 7 c0 -7 -18 -49
-40 -93 -60 -120 -92 -257 -88 -378 2 -61 -1 -96 -7 -94 -17 6 -17 166 0 248
8 42 15 79 15 83 0 4 -27 -27 -60 -68 -55 -69 -90 -94 -90 -65 0 6 -18 -5 -40
-25 -22 -20 -49 -36 -60 -36 -25 0 -42 33 -34 65 8 33 -1 32 -44 -6 -80 -70
-142 -71 -142 -2 0 35 0 35 -25 19 -33 -22 -62 -20 -75 4 -11 21 -12 20 -46
-10 -19 -17 -39 -28 -45 -25 -5 4 -9 27 -9 53 0 46 0 46 -19 27 -11 -11 -35
-47 -53 -79 -43 -77 -61 -84 -57 -22 2 25 3 46 2 46 -1 0 -23 -29 -49 -65 -26
-35 -54 -67 -63 -70 -27 -11 -43 24 -35 83 3 29 7 65 9 81 5 70 121 318 153
329 24 8 12 -38 -35 -125 -25 -48 -57 -108 -69 -133 -29 -54 -53 -195 -37
-211 15 -15 131 142 164 222 41 101 49 79 12 -32 -18 -56 -32 -104 -29 -106 2
-3 20 19 39 49 60 93 87 100 87 21 l0 -47 28 27 c34 32 48 34 62 7 17 -31 37
-24 99 35 64 61 101 72 101 31 0 -26 -52 -86 -75 -86 -19 0 -26 -25 -11 -45
11 -15 15 -16 48 -2 20 8 64 43 97 76 34 34 61 59 61 57 0 -2 -7 -32 -16 -65
-25 -98 -3 -107 72 -28 28 28 63 69 78 90 22 31 34 38 52 34 21 -4 30 5 59 53
19 32 42 76 49 98 24 68 66 119 66 80z m-2227 -94 c-32 -94 -118 -266 -168
-334 -44 -60 -87 -87 -104 -66 -18 21 -33 135 -26 191 10 81 36 209 47 225 11
18 8 -15 -16 -155 -22 -125 -12 -245 19 -245 45 0 177 236 250 448 2 6 9 12
14 12 5 0 -2 -34 -16 -76z m37 -119 c0 -8 -4 -15 -9 -15 -13 0 -22 16 -14 24
11 11 23 6 23 -9z m331 -8 c-13 -13 -26 -3 -16 12 3 6 11 8 17 5 6 -4 6 -10
-1 -17z m1519 8 c0 -8 -4 -15 -9 -15 -13 0 -22 16 -14 24 11 11 23 6 23 -9z
m470 8 c0 -5 -11 -35 -25 -68 -13 -33 -25 -66 -25 -72 0 -23 25 -14 69 23 23
20 45 34 48 30 9 -9 -14 -32 -64 -65 -58 -38 -77 -32 -69 22 l7 41 -44 -47
c-71 -76 -105 -51 -52 38 26 45 47 59 76 50 12 -4 25 4 40 25 22 28 39 39 39
23z m-2196 -85 c-17 -49 -30 -148 -19 -148 13 0 35 32 60 87 22 47 27 52 67
58 24 4 51 14 61 23 25 22 29 11 12 -38 -8 -23 -15 -55 -15 -71 0 -47 29 -36
97 38 69 74 87 69 24 -6 -45 -54 -100 -87 -126 -77 -15 5 -17 15 -12 61 5 47
3 55 -11 55 -42 0 -60 -14 -82 -61 -28 -60 -63 -94 -86 -85 -14 5 -16 15 -10
63 l7 56 -50 -46 c-80 -75 -120 -57 -101 44 9 47 27 85 37 76 2 -2 -4 -32 -12
-66 -26 -101 -3 -108 77 -23 30 31 60 67 67 80 20 38 31 24 15 -20z m36 -618
c42 0 49 3 53 23 2 12 4 -3 4 -33 0 -30 -2 -45 -4 -32 -4 19 -11 22 -53 22
-42 0 -49 -3 -53 -22 -2 -13 -4 2 -4 32 0 30 2 45 4 33 4 -20 11 -23 53 -23z
m198 28 c7 -7 12 -24 12 -38 0 -37 -18 -50 -65 -50 -46 0 -65 13 -65 46 0 45
10 54 59 54 26 0 52 -5 59 -12z m52 5 c0 -5 13 -23 28 -41 l28 -34 27 41 c15
23 32 41 37 41 6 0 10 -22 10 -50 0 -27 -4 -50 -10 -50 -5 0 -10 17 -10 37 l0
38 -27 -39 -28 -38 -32 38 -32 38 -4 -39 c-3 -36 -4 -34 -5 13 -1 29 2 52 8
52 6 0 10 -3 10 -7z m223 0 c-38 -3 -53 -8 -53 -19 0 -10 12 -14 46 -14 27 0
43 -4 39 -10 -3 -5 -24 -10 -46 -10 -27 0 -39 -4 -39 -14 0 -11 15 -16 53 -19
l52 -3 -62 -2 -63 -2 0 50 0 50 63 -2 62 -2 -52 -3z m339 -18 c8 -19 8 -31 0
-50 -10 -22 -18 -25 -67 -25 l-55 0 0 50 0 50 55 0 c49 0 57 -3 67 -25z m96
18 c-42 -3 -58 -8 -58 -18 0 -11 12 -15 45 -15 25 0 45 -4 45 -10 0 -5 -20
-10 -45 -10 -33 0 -45 -4 -45 -15 0 -10 16 -15 58 -18 l57 -3 -62 -2 -63 -2 0
50 0 50 63 -2 62 -2 -57 -3z m185 0 c3 -5 -19 -6 -49 -5 -43 3 -54 1 -54 -12
0 -11 13 -16 53 -18 48 -3 52 -5 52 -28 0 -23 -4 -25 -49 -28 -27 -2 -53 1
-57 5 -5 5 14 9 43 8 32 0 53 5 55 13 3 8 -8 12 -35 12 -56 0 -72 8 -72 36 0
22 4 24 54 24 30 0 57 -3 59 -7z m47 -43 c0 -27 -4 -50 -10 -50 -5 0 -10 23
-10 50 0 28 5 50 10 50 6 0 10 -22 10 -50z m140 35 c9 -10 9 -15 1 -15 -6 0
-11 5 -11 10 0 6 -21 10 -46 10 l-45 0 3 -37 c3 -37 4 -38 42 -38 46 0 61 22
19 28 -23 3 -22 4 10 6 24 0 37 -3 37 -12 0 -24 -23 -37 -65 -37 -46 0 -65 13
-65 46 0 45 10 54 60 54 30 0 52 -6 60 -15z m86 -20 c23 -19 45 -35 48 -35 3
0 6 16 6 35 0 19 5 35 10 35 6 0 10 -22 10 -50 0 -27 -3 -50 -6 -50 -4 0 -26
16 -50 35 -23 19 -47 35 -53 35 -5 0 -12 -17 -14 -37 -3 -31 -4 -29 -5 15 -1
28 1 52 4 52 4 0 26 -16 50 -35z m162 28 c-42 -3 -58 -8 -58 -18 0 -11 13 -15
51 -15 31 0 48 -4 44 -10 -3 -5 -27 -10 -51 -10 -65 0 -52 -23 17 -31 l54 -6
-62 -1 -63 -2 0 50 0 50 63 -2 62 -2 -57 -3z m199 -45 c1 -27 -2 -48 -7 -48
-6 0 -10 9 -10 20 0 17 -7 20 -45 20 -38 0 -45 -3 -45 -20 0 -11 -4 -20 -10
-20 -5 0 -10 23 -10 50 l0 51 63 -3 62 -3 2 -47z"/>
<path d="M2553 3463 c-24 -2 -43 -7 -42 -11 0 -4 66 -149 147 -322 l147 -315
334 -3 c315 -2 333 -1 327 15 -4 10 -87 159 -184 331 l-177 312 -255 -2 c-140
-1 -274 -3 -297 -5z"/>
<path d="M2558 2562 c-31 -34 -108 -148 -108 -160 0 -18 84 -30 94 -14 8 13
47 194 43 198 -2 2 -15 -9 -29 -24z"/>
<path d="M2732 2514 c-13 -26 -21 -49 -18 -51 3 -3 16 18 30 46 15 28 23 51
18 51 -4 0 -18 -21 -30 -46z"/>
<path d="M3492 2363 c-14 -5 -56 -82 -49 -89 4 -5 77 80 77 90 0 7 -10 7 -28
-1z"/>
<path d="M3141 2324 c-36 -46 -23 -54 22 -16 18 16 23 42 8 42 -5 0 -19 -12
-30 -26z"/>
<path d="M3682 2313 c-24 -35 -34 -63 -22 -63 10 0 70 70 70 82 0 18 -30 6
-48 -19z"/>
<path d="M1752 1693 c3 -37 4 -38 43 -38 39 0 40 1 43 38 l3 37 -46 0 -46 0 3
-37z"/>
<path d="M2352 1693 c3 -38 3 -38 48 -38 45 0 45 0 45 35 0 35 0 35 -48 38
l-48 3 3 -38z"/>
<path d="M3270 1710 c0 -17 7 -20 45 -20 38 0 45 3 45 20 0 17 -7 20 -45 20
-38 0 -45 -3 -45 -20z"/>
</g>
</svg>
